<mxfile host="www.draw.io" modified="2019-11-23T02:11:42.488Z" agent="Mozilla/5.0 (X11; Linux x86_64) AppleWebKit/537.36 (KHTML, like Gecko) Chrome/78.0.3904.97 Safari/537.36" etag="ALQLFgbRANWpcwFW0_FG" version="12.2.9" type="github" pages="1">
  <diagram name="Page-1" id="74e2e168-ea6b-b213-b513-2b3c1d86103e">
    <mxGraphModel dx="1049" dy="448" grid="1" gridSize="10" guides="1" tooltips="1" connect="1" arrows="1" fold="1" page="1" pageScale="1" pageWidth="1100" pageHeight="850" background="#ffffff" math="0" shadow="0">
      <root>
        <mxCell id="0"/>
        <mxCell id="1" parent="0"/>
        <mxCell id="77e6c97f196da883-1" value="Pool" style="swimlane;html=1;childLayout=stackLayout;startSize=20;rounded=0;shadow=0;labelBackgroundColor=none;strokeWidth=1;fontFamily=Verdana;fontSize=8;align=center;" parent="1" vertex="1">
          <mxGeometry x="70" y="40" width="960" height="1100" as="geometry"/>
        </mxCell>
        <mxCell id="77e6c97f196da883-2" value="统一门户" style="swimlane;html=1;startSize=20;" parent="77e6c97f196da883-1" vertex="1">
          <mxGeometry y="20" width="160" height="1080" as="geometry"/>
        </mxCell>
        <mxCell id="77e6c97f196da883-8" value="登录" style="rounded=1;whiteSpace=wrap;html=1;shadow=0;labelBackgroundColor=none;strokeWidth=1;fontFamily=Verdana;fontSize=8;align=center;" parent="77e6c97f196da883-2" vertex="1">
          <mxGeometry x="20" y="65" width="100" height="60" as="geometry"/>
        </mxCell>
        <mxCell id="77e6c97f196da883-26" style="edgeStyle=orthogonalEdgeStyle;rounded=1;html=1;labelBackgroundColor=none;startArrow=none;startFill=0;startSize=5;endArrow=classicThin;endFill=1;endSize=5;jettySize=auto;orthogonalLoop=1;strokeWidth=1;fontFamily=Verdana;fontSize=8" parent="77e6c97f196da883-1" source="77e6c97f196da883-8" target="77e6c97f196da883-11" edge="1">
          <mxGeometry relative="1" as="geometry"/>
        </mxCell>
        <mxCell id="77e6c97f196da883-40" style="edgeStyle=orthogonalEdgeStyle;rounded=1;html=1;labelBackgroundColor=none;startArrow=none;startFill=0;startSize=5;endArrow=classicThin;endFill=1;endSize=5;jettySize=auto;orthogonalLoop=1;strokeWidth=1;fontFamily=Verdana;fontSize=8" parent="77e6c97f196da883-1" target="77e6c97f196da883-24" edge="1">
          <mxGeometry relative="1" as="geometry">
            <mxPoint x="770" y="690" as="sourcePoint"/>
          </mxGeometry>
        </mxCell>
        <mxCell id="107ba76e4e335f99-1" style="edgeStyle=orthogonalEdgeStyle;rounded=1;html=1;labelBackgroundColor=none;startArrow=none;startFill=0;startSize=5;endArrow=classicThin;endFill=1;endSize=5;jettySize=auto;orthogonalLoop=1;strokeWidth=1;fontFamily=Verdana;fontSize=8" parent="77e6c97f196da883-1" source="77e6c97f196da883-17" target="77e6c97f196da883-18" edge="1">
          <mxGeometry relative="1" as="geometry"/>
        </mxCell>
        <mxCell id="77e6c97f196da883-3" value="数据管理系统WEB" style="swimlane;html=1;startSize=20;" parent="77e6c97f196da883-1" vertex="1">
          <mxGeometry x="160" y="20" width="160" height="1080" as="geometry"/>
        </mxCell>
        <mxCell id="77e6c97f196da883-11" value="首页" style="rounded=1;whiteSpace=wrap;html=1;shadow=0;labelBackgroundColor=none;strokeWidth=1;fontFamily=Verdana;fontSize=8;align=center;" parent="77e6c97f196da883-3" vertex="1">
          <mxGeometry x="30" y="65" width="100" height="60" as="geometry"/>
        </mxCell>
        <mxCell id="eJXi0MFFQhLOobJJZis1-4" value="添加数据源" style="rounded=1;whiteSpace=wrap;html=1;shadow=0;labelBackgroundColor=none;strokeWidth=1;fontFamily=Verdana;fontSize=8;align=center;" vertex="1" parent="77e6c97f196da883-3">
          <mxGeometry x="30" y="155" width="100" height="60" as="geometry"/>
        </mxCell>
        <mxCell id="eJXi0MFFQhLOobJJZis1-13" value="sql查询" style="rounded=1;whiteSpace=wrap;html=1;shadow=0;labelBackgroundColor=none;strokeWidth=1;fontFamily=Verdana;fontSize=8;align=center;" vertex="1" parent="77e6c97f196da883-3">
          <mxGeometry x="30" y="520" width="100" height="60" as="geometry"/>
        </mxCell>
        <mxCell id="77e6c97f196da883-4" value="数据管理系统-SERVICE" style="swimlane;html=1;startSize=20;" parent="77e6c97f196da883-1" vertex="1">
          <mxGeometry x="320" y="20" width="160" height="1080" as="geometry"/>
        </mxCell>
        <mxCell id="77e6c97f196da883-12" value="保存数据源" style="rounded=1;whiteSpace=wrap;html=1;shadow=0;labelBackgroundColor=none;strokeWidth=1;fontFamily=Verdana;fontSize=8;align=center;" parent="77e6c97f196da883-4" vertex="1">
          <mxGeometry x="30" y="155" width="100" height="60" as="geometry"/>
        </mxCell>
        <mxCell id="77e6c97f196da883-13" value="" style="rhombus;whiteSpace=wrap;html=1;rounded=0;shadow=0;labelBackgroundColor=none;strokeWidth=1;fontFamily=Verdana;fontSize=8;align=center;" parent="77e6c97f196da883-4" vertex="1">
          <mxGeometry x="40" y="240" width="80" height="60" as="geometry"/>
        </mxCell>
        <mxCell id="77e6c97f196da883-29" style="edgeStyle=orthogonalEdgeStyle;rounded=1;html=1;labelBackgroundColor=none;startArrow=none;startFill=0;startSize=5;endArrow=classicThin;endFill=1;endSize=5;jettySize=auto;orthogonalLoop=1;strokeWidth=1;fontFamily=Verdana;fontSize=8" parent="77e6c97f196da883-4" source="77e6c97f196da883-12" target="77e6c97f196da883-13" edge="1">
          <mxGeometry relative="1" as="geometry"/>
        </mxCell>
        <mxCell id="eJXi0MFFQhLOobJJZis1-3" value="创建工作空间资源&lt;br&gt;如: sql提示项列表" style="rounded=1;whiteSpace=wrap;html=1;shadow=0;labelBackgroundColor=none;strokeWidth=1;fontFamily=Verdana;fontSize=8;align=center;" vertex="1" parent="77e6c97f196da883-4">
          <mxGeometry x="30" y="64" width="100" height="60" as="geometry"/>
        </mxCell>
        <mxCell id="eJXi0MFFQhLOobJJZis1-8" value="" style="edgeStyle=orthogonalEdgeStyle;rounded=0;orthogonalLoop=1;jettySize=auto;html=1;endArrow=classicThin;endFill=1;fontSize=8;dashed=1;" edge="1" parent="77e6c97f196da883-4" source="77e6c97f196da883-15" target="77e6c97f196da883-17">
          <mxGeometry relative="1" as="geometry"/>
        </mxCell>
        <mxCell id="77e6c97f196da883-15" value="发送拉取元数据Event" style="rounded=1;whiteSpace=wrap;html=1;shadow=0;labelBackgroundColor=none;strokeWidth=1;fontFamily=Verdana;fontSize=8;align=center;" parent="77e6c97f196da883-4" vertex="1">
          <mxGeometry x="30" y="333" width="100" height="60" as="geometry"/>
        </mxCell>
        <mxCell id="77e6c97f196da883-33" value="成功" style="edgeStyle=orthogonalEdgeStyle;rounded=1;html=1;labelBackgroundColor=none;startArrow=none;startFill=0;startSize=5;endArrow=classicThin;endFill=1;endSize=5;jettySize=auto;orthogonalLoop=1;strokeWidth=1;fontFamily=Verdana;fontSize=8" parent="77e6c97f196da883-4" source="77e6c97f196da883-13" target="77e6c97f196da883-15" edge="1">
          <mxGeometry relative="1" as="geometry"/>
        </mxCell>
        <mxCell id="eJXi0MFFQhLOobJJZis1-11" value="" style="group" vertex="1" connectable="0" parent="77e6c97f196da883-4">
          <mxGeometry x="30" y="425" width="100" height="60" as="geometry"/>
        </mxCell>
        <mxCell id="77e6c97f196da883-17" value="拉取元数据任务" style="rounded=1;whiteSpace=wrap;html=1;shadow=0;labelBackgroundColor=none;strokeWidth=1;fontFamily=Verdana;fontSize=8;align=center;" parent="eJXi0MFFQhLOobJJZis1-11" vertex="1">
          <mxGeometry width="100" height="60" as="geometry"/>
        </mxCell>
        <mxCell id="eJXi0MFFQhLOobJJZis1-10" value="" style="shape=mxgraph.bpmn.shape;html=1;verticalLabelPosition=bottom;labelBackgroundColor=#ffffff;verticalAlign=top;align=center;perimeter=ellipsePerimeter;outlineConnect=0;outline=standard;symbol=timer;fontSize=8;" vertex="1" parent="eJXi0MFFQhLOobJJZis1-11">
          <mxGeometry width="25" height="30" as="geometry"/>
        </mxCell>
        <mxCell id="eJXi0MFFQhLOobJJZis1-17" value="" style="edgeStyle=orthogonalEdgeStyle;rounded=0;orthogonalLoop=1;jettySize=auto;html=1;endArrow=classicThin;endFill=1;fontSize=8;" edge="1" parent="77e6c97f196da883-4" source="77e6c97f196da883-19" target="eJXi0MFFQhLOobJJZis1-16">
          <mxGeometry relative="1" as="geometry"/>
        </mxCell>
        <mxCell id="77e6c97f196da883-19" value="sql解析" style="rounded=1;whiteSpace=wrap;html=1;shadow=0;labelBackgroundColor=none;strokeWidth=1;fontFamily=Verdana;fontSize=8;align=center;" parent="77e6c97f196da883-4" vertex="1">
          <mxGeometry x="30" y="520" width="100" height="60" as="geometry"/>
        </mxCell>
        <mxCell id="eJXi0MFFQhLOobJJZis1-22" value="" style="edgeStyle=orthogonalEdgeStyle;rounded=0;orthogonalLoop=1;jettySize=auto;html=1;endArrow=classicThin;endFill=1;fontSize=8;" edge="1" parent="77e6c97f196da883-4" source="eJXi0MFFQhLOobJJZis1-15" target="eJXi0MFFQhLOobJJZis1-21">
          <mxGeometry relative="1" as="geometry"/>
        </mxCell>
        <mxCell id="eJXi0MFFQhLOobJJZis1-15" value="" style="rhombus;whiteSpace=wrap;html=1;rounded=0;shadow=0;labelBackgroundColor=none;strokeWidth=1;fontFamily=Verdana;fontSize=8;align=center;" vertex="1" parent="77e6c97f196da883-4">
          <mxGeometry x="40" y="694" width="80" height="60" as="geometry"/>
        </mxCell>
        <mxCell id="eJXi0MFFQhLOobJJZis1-18" value="" style="edgeStyle=orthogonalEdgeStyle;rounded=0;orthogonalLoop=1;jettySize=auto;html=1;endArrow=classicThin;endFill=1;fontSize=8;" edge="1" parent="77e6c97f196da883-4" source="eJXi0MFFQhLOobJJZis1-16" target="eJXi0MFFQhLOobJJZis1-15">
          <mxGeometry relative="1" as="geometry"/>
        </mxCell>
        <mxCell id="eJXi0MFFQhLOobJJZis1-16" value="权限检查" style="rounded=1;whiteSpace=wrap;html=1;shadow=0;labelBackgroundColor=none;strokeWidth=1;fontFamily=Verdana;fontSize=8;align=center;" vertex="1" parent="77e6c97f196da883-4">
          <mxGeometry x="30" y="610" width="100" height="60" as="geometry"/>
        </mxCell>
        <mxCell id="eJXi0MFFQhLOobJJZis1-26" value="" style="edgeStyle=orthogonalEdgeStyle;rounded=0;orthogonalLoop=1;jettySize=auto;html=1;endArrow=classicThin;endFill=1;fontSize=8;" edge="1" parent="77e6c97f196da883-4" source="eJXi0MFFQhLOobJJZis1-21" target="eJXi0MFFQhLOobJJZis1-25">
          <mxGeometry relative="1" as="geometry"/>
        </mxCell>
        <mxCell id="eJXi0MFFQhLOobJJZis1-21" value="创建执行代理" style="rounded=1;whiteSpace=wrap;html=1;shadow=0;labelBackgroundColor=none;strokeWidth=1;fontFamily=Verdana;fontSize=8;align=center;" vertex="1" parent="77e6c97f196da883-4">
          <mxGeometry x="30" y="778" width="100" height="60" as="geometry"/>
        </mxCell>
        <mxCell id="eJXi0MFFQhLOobJJZis1-25" value="结果整合, 记录审计日志" style="rounded=1;whiteSpace=wrap;html=1;shadow=0;labelBackgroundColor=none;strokeWidth=1;fontFamily=Verdana;fontSize=8;align=center;" vertex="1" parent="77e6c97f196da883-4">
          <mxGeometry x="30" y="862" width="100" height="60" as="geometry"/>
        </mxCell>
        <mxCell id="77e6c97f196da883-5" value="外部数据源" style="swimlane;html=1;startSize=20;" parent="77e6c97f196da883-1" vertex="1">
          <mxGeometry x="480" y="20" width="160" height="1080" as="geometry"/>
        </mxCell>
        <mxCell id="77e6c97f196da883-18" value="外部数据源" style="rounded=1;whiteSpace=wrap;html=1;shadow=0;labelBackgroundColor=none;strokeWidth=1;fontFamily=Verdana;fontSize=8;align=center;" parent="77e6c97f196da883-5" vertex="1">
          <mxGeometry x="34" y="425" width="100" height="60" as="geometry"/>
        </mxCell>
        <mxCell id="eJXi0MFFQhLOobJJZis1-23" value="外部真实数据源" style="rounded=1;whiteSpace=wrap;html=1;shadow=0;labelBackgroundColor=none;strokeWidth=1;fontFamily=Verdana;fontSize=8;align=center;" vertex="1" parent="77e6c97f196da883-5">
          <mxGeometry x="34" y="778" width="100" height="60" as="geometry"/>
        </mxCell>
        <mxCell id="77e6c97f196da883-6" value="Lane 5" style="swimlane;html=1;startSize=20;" parent="77e6c97f196da883-1" vertex="1">
          <mxGeometry x="640" y="20" width="160" height="1080" as="geometry"/>
        </mxCell>
        <mxCell id="77e6c97f196da883-7" value="Lane 6" style="swimlane;html=1;startSize=20;" parent="77e6c97f196da883-1" vertex="1">
          <mxGeometry x="800" y="20" width="160" height="1080" as="geometry"/>
        </mxCell>
        <mxCell id="77e6c97f196da883-24" value="" style="rounded=1;whiteSpace=wrap;html=1;shadow=0;labelBackgroundColor=none;strokeWidth=1;fontFamily=Verdana;fontSize=8;align=center;" parent="77e6c97f196da883-7" vertex="1">
          <mxGeometry x="30" y="640" width="100" height="60" as="geometry"/>
        </mxCell>
        <mxCell id="eJXi0MFFQhLOobJJZis1-5" style="edgeStyle=orthogonalEdgeStyle;rounded=0;orthogonalLoop=1;jettySize=auto;html=1;entryX=0;entryY=0.5;entryDx=0;entryDy=0;endArrow=classicThin;endFill=1;fontSize=8;" edge="1" parent="77e6c97f196da883-1" source="eJXi0MFFQhLOobJJZis1-4" target="77e6c97f196da883-12">
          <mxGeometry relative="1" as="geometry"/>
        </mxCell>
        <mxCell id="eJXi0MFFQhLOobJJZis1-6" value="失败" style="edgeStyle=orthogonalEdgeStyle;rounded=0;orthogonalLoop=1;jettySize=auto;html=1;entryX=0.5;entryY=1;entryDx=0;entryDy=0;endArrow=classicThin;endFill=1;fontSize=8;" edge="1" parent="77e6c97f196da883-1" source="77e6c97f196da883-13" target="eJXi0MFFQhLOobJJZis1-4">
          <mxGeometry relative="1" as="geometry"/>
        </mxCell>
        <mxCell id="eJXi0MFFQhLOobJJZis1-14" value="" style="edgeStyle=orthogonalEdgeStyle;rounded=0;orthogonalLoop=1;jettySize=auto;html=1;endArrow=classicThin;endFill=1;fontSize=8;" edge="1" parent="77e6c97f196da883-1" source="eJXi0MFFQhLOobJJZis1-13" target="77e6c97f196da883-19">
          <mxGeometry relative="1" as="geometry"/>
        </mxCell>
        <mxCell id="eJXi0MFFQhLOobJJZis1-19" value="" style="edgeStyle=orthogonalEdgeStyle;rounded=0;orthogonalLoop=1;jettySize=auto;html=1;endArrow=classicThin;endFill=1;fontSize=8;entryX=0.5;entryY=1;entryDx=0;entryDy=0;" edge="1" parent="77e6c97f196da883-1" source="eJXi0MFFQhLOobJJZis1-15" target="eJXi0MFFQhLOobJJZis1-13">
          <mxGeometry relative="1" as="geometry">
            <Array as="points">
              <mxPoint x="240" y="744"/>
            </Array>
          </mxGeometry>
        </mxCell>
        <mxCell id="eJXi0MFFQhLOobJJZis1-20" value="不通过" style="text;html=1;align=center;verticalAlign=middle;resizable=0;points=[];;labelBackgroundColor=#ffffff;fontSize=8;" vertex="1" connectable="0" parent="eJXi0MFFQhLOobJJZis1-19">
          <mxGeometry x="-0.0909" y="-51" relative="1" as="geometry">
            <mxPoint x="-54" y="-51" as="offset"/>
          </mxGeometry>
        </mxCell>
        <mxCell id="eJXi0MFFQhLOobJJZis1-24" value="" style="edgeStyle=orthogonalEdgeStyle;rounded=0;orthogonalLoop=1;jettySize=auto;html=1;endArrow=classicThin;endFill=1;fontSize=8;" edge="1" parent="77e6c97f196da883-1" source="eJXi0MFFQhLOobJJZis1-21" target="eJXi0MFFQhLOobJJZis1-23">
          <mxGeometry relative="1" as="geometry"/>
        </mxCell>
        <mxCell id="eJXi0MFFQhLOobJJZis1-27" style="edgeStyle=orthogonalEdgeStyle;rounded=0;orthogonalLoop=1;jettySize=auto;html=1;entryX=0.5;entryY=1;entryDx=0;entryDy=0;endArrow=classicThin;endFill=1;fontSize=8;" edge="1" parent="77e6c97f196da883-1" source="eJXi0MFFQhLOobJJZis1-25" target="eJXi0MFFQhLOobJJZis1-13">
          <mxGeometry relative="1" as="geometry"/>
        </mxCell>
        <mxCell id="eJXi0MFFQhLOobJJZis1-28" value="返回结果" style="text;html=1;align=center;verticalAlign=middle;resizable=0;points=[];;labelBackgroundColor=#ffffff;fontSize=8;" vertex="1" connectable="0" parent="eJXi0MFFQhLOobJJZis1-27">
          <mxGeometry x="-0.4787" y="-48" relative="1" as="geometry">
            <mxPoint x="-50" y="-48" as="offset"/>
          </mxGeometry>
        </mxCell>
        <mxCell id="eJXi0MFFQhLOobJJZis1-2" style="edgeStyle=orthogonalEdgeStyle;rounded=0;orthogonalLoop=1;jettySize=auto;html=1;fontSize=8;dashed=1;endArrow=classicThin;endFill=1;" edge="1" parent="1" source="77e6c97f196da883-11">
          <mxGeometry relative="1" as="geometry">
            <mxPoint x="420" y="155" as="targetPoint"/>
          </mxGeometry>
        </mxCell>
      </root>
    </mxGraphModel>
  </diagram>
</mxfile>
